<?xml version="1.0" encoding="utf-8"?>
<!-- Svg Vector Icons : http://www.onlinewebfonts.com/icon -->
<!DOCTYPE svg PUBLIC "-//W3C//DTD SVG 1.1//EN" "http://www.w3.org/Graphics/SVG/1.1/DTD/svg11.dtd">
<svg version="1.1" xmlns="http://www.w3.org/2000/svg" xmlns:xlink="http://www.w3.org/1999/xlink" x="0px" y="0px" viewBox="0 0 1000 1000" enable-background="new 0 0 1000 1000" xml:space="preserve">
<metadata> Svg Vector Icons : http://www.onlinewebfonts.com/icon </metadata>
<g><g><g><path d="M384.7,47.4H84.2c-41,0-74.2,33.2-74.2,74.2v263.1c0,41,33.2,74.2,74.2,74.2h300.5c41,0,74.2-33.2,74.2-74.2V121.5C458.9,80.6,425.7,47.4,384.7,47.4z"/><path d="M915.8,47.4H615.3c-41,0-74.3,33.2-74.3,74.2v263.1c0,41,33.2,74.2,74.3,74.2h300.5c41,0,74.2-33.2,74.2-74.2V121.5C990,80.6,956.8,47.4,915.8,47.4z"/><path d="M384.7,541.1H84.2c-41,0-74.2,33.2-74.2,74.2v263.1c0,40.9,33.2,74.2,74.2,74.2h300.5c41,0,74.2-33.3,74.2-74.2V615.3C458.9,574.3,425.6,541.1,384.7,541.1z"/><path d="M915.8,541.1H615.3c-41,0-74.3,33.2-74.3,74.2v263.1c0,41,33.2,74.2,74.3,74.2h300.5c41,0,74.2-33.2,74.2-74.2V615.3C990,574.3,956.8,541.1,915.8,541.1z"/></g></g><g></g><g></g><g></g><g></g><g></g><g></g><g></g><g></g><g></g><g></g><g></g><g></g><g></g><g></g><g></g></g>
</svg>